<?xml version="1.0" encoding="UTF-8"?>
<svg id="OBJECTS" xmlns="http://www.w3.org/2000/svg" xmlns:xlink="http://www.w3.org/1999/xlink" version="1.1" viewBox="0 0 128.39 128.39">
  <!-- Generator: Adobe Illustrator 29.7.1, SVG Export Plug-In . SVG Version: 2.1.1 Build 8)  -->
  <defs>
    <style>
      .st0 {
        fill: none;
        stroke: #060305;
        stroke-linecap: round;
        stroke-linejoin: round;
      }

      .st1 {
        fill: #b478ff;
      }

      .st2 {
        fill: #fff;
      }

      .st3 {
        fill: #ffc9c8;
      }

      .st4 {
        fill: #060305;
      }

      .st5 {
        fill: #ff99a1;
      }

      .st6 {
        clip-path: url(#clippath);
      }
    </style>
    <clipPath id="clippath">
      <circle class="st1" cx="64.2" cy="64.2" r="64.2"/>
    </clipPath>
  </defs>
  <circle class="st1" cx="64.2" cy="64.2" r="64.2"/>
  <g class="st6">
    <g>
      <path class="st3" d="M125.46,105.52c-5.47-12.16-17.81-19.23-30.44-23.49-5.59-1.88-11.24-3.24-17.02-4.42-.04-1.35-.38-2.48-.42-3.83,4.36-2.2,7.56-7.08,7.5-11.96,2.51-1.72,4.84-3.79,6.44-6.39,1.6-2.59,2.42-5.75,1.82-8.74-.61-2.99-2.9-5.14-5.83-5.98.48-8.34-3.94-16.78-11.06-21.15-7.12-4.37-16.65-4.47-23.87-.26-7.22,4.21-11.76,12.75-11.47,21.1-4.95,1.95-7.96,7.86-6.61,13.01,1.34,5.15,6.86,8.84,12.13,8.12-.34,5.53-.27,10.91-.61,16.44-5.14,1.53-10.45,2.86-15.58,4.38-11.82,3.51-22.07,13.67-25.77,25.44,17.69,12.29,39.17,18.32,60.7,17.63,21.53-.69,41.92-8.35,60.11-19.89Z"/>
      <g>
        <path class="st5" d="M63.68,54.78c-.73,3.32-3.7,3.44-7.17,2.68-3.47-.76-6.07-2.34-5.39-5.44.63-2.87,3.7-3.44,7.17-2.68,3.47.76,6.02,2.57,5.39,5.44Z"/>
        <path class="st5" d="M85.33,52.18c.78,3.31-1.85,4.71-5.31,5.52-3.46.81-6.48.52-7.21-2.58-.67-2.86,1.85-4.71,5.31-5.52,3.46-.81,6.54-.28,7.21,2.58Z"/>
      </g>
      <g>
        <path class="st0" d="M87.66,40.58c-.78,7.38-1.57,14.76-2.35,22.14"/>
        <path class="st0" d="M87,48.44c1.26-.63,2.51-1.27,3.77-1.9"/>
      </g>
      <g>
        <path class="st0" d="M38.91,44.95c1.93.96,3.87,1.91,5.8,2.87"/>
        <path class="st0" d="M40.63,40.38c2.2-1.41,5.21-1.44,7.45-.09"/>
      </g>
      <g>
        <circle class="st4" cx="57.6" cy="46.91" r="1.5"/>
        <circle class="st4" cx="78.6" cy="46.91" r="1.5"/>
        <path class="st0" d="M52.71,39.89c1.2-1.59,3.2-2.53,5.19-2.44,1.99.09,3.89,1.22,4.94,2.92"/>
        <path class="st0" d="M73.75,40.96c.92-1.89,2.96-3.18,5.06-3.18,2.1,0,4.15,1.26,5.08,3.14"/>
        <path class="st0" d="M68.8,46.14c.66,3.61,1.33,7.22,1.99,10.83-1.06.04-2.34.09-3.4.13"/>
        <path class="st0" d="M62.34,58.74c.15.94.75,1.8,1.58,2.27s1.88.53,2.76.17"/>
      </g>
      <path class="st0" d="M37.95,56.1c-.63,1.29-1.26,2.58-1.89,3.87"/>
      <path class="st0" d="M41.84,57.66c-.6,2.27-1.21,4.54-1.81,6.81"/>
      <path class="st0" d="M62.56,75.04c4.97,2.22,11.07,1.71,15.6-1.3"/>
      <g>
        <path class="st0" d="M28.3,102.21c.61,1.18,1.22,2.37,1.83,3.55"/>
        <path class="st0" d="M95.35,106.08l2.35-3.18"/>
      </g>
    </g>
    <g>
      <path class="st2" d="M105.08,122.23c-9.4-11.67-14.12-27.23-12.15-42.08-2.83-.7-5.49-1.26-8.31-1.96-1.34,6.75-5.91,12.78-12.05,15.89-6.14,3.11-13.71,3.22-19.94.3s-10.99-8.81-12.53-15.52c-3,.8-5.79,1.43-8.79,2.23,2.37,13.38-.89,27.71-8.62,38.89,7.79,6.24,17.02,10.41,26.88,11.92,9.17,1.41,18.57.51,27.62-1.52,9.05-2.03,19.18-5.03,27.91-8.17Z"/>
      <path class="st0" d="M37.5,79.59c.81,6.98,5.64,13.13,11.8,16.5,7.06,3.85,15.9,4.26,23.29,1.07,7.38-3.19,13.15-9.91,15.18-17.69"/>
    </g>
  </g>
</svg>