<?xml version="1.0" encoding="UTF-8"?>
<svg id="OBJECTS" xmlns="http://www.w3.org/2000/svg" xmlns:xlink="http://www.w3.org/1999/xlink" version="1.1" viewBox="0 0 128.39 128.39">
  <!-- Generator: Adobe Illustrator 29.7.1, SVG Export Plug-In . SVG Version: 2.1.1 Build 8)  -->
  <defs>
    <style>
      .st0 {
        fill: #fe5e04;
      }

      .st1 {
        fill: none;
        stroke: #060305;
        stroke-linecap: round;
        stroke-linejoin: round;
      }

      .st2 {
        fill: #fdb044;
      }

      .st3 {
        fill: #ffc9c8;
      }

      .st4 {
        fill: #060305;
      }

      .st5 {
        fill: #ff99a1;
      }

      .st6 {
        clip-path: url(#clippath);
      }
    </style>
    <clipPath id="clippath">
      <circle class="st0" cx="64.2" cy="64.2" r="64.2"/>
    </clipPath>
  </defs>
  <circle class="st0" cx="64.2" cy="64.2" r="64.2"/>
  <g class="st6">
    <g>
      <path class="st2" d="M124.78,111.05c-4.72-11.48-14.79-21.37-26.64-24.42-6.69-1.72-13.22-2.82-19.91-4.55-4.01,3.09-8.98,4.87-14,5.02s-10.3-1.69-14.49-4.53c-5.54.98-11.09,1.96-16.63,2.94-13.43,2.38-24.85,13.45-27.72,27.02,10.28,5.73,20.89,10.65,31.86,14.87s22.68,6.87,34.38,6.17c19.36-1.16,36.95-11.68,53.15-22.53Z"/>
      <g>
        <path class="st1" d="M38.99,85.21c3.46,9.78,13.56,16.8,23.94,16.63,10.37-.17,20.24-7.51,23.38-17.4"/>
        <path class="st1" d="M26.96,87.29c.92,10.81.48,21.74-1.32,32.44"/>
        <path class="st1" d="M98.07,86.76c.07,10.13,1.8,20.24,5.08,29.82"/>
      </g>
    </g>
    <g>
      <path class="st1" d="M39.31,24.05c1.03.62,2.06,1.24,3.1,1.86-.1-1.42-.2-2.84-.3-4.27"/>
      <path class="st1" d="M88.89,27.89c2.16-1.09,4.87-.99,6.94.26,2.07,1.25,3.42,3.61,3.46,6.02"/>
      <path class="st4" d="M37.51,52c-.9-6.53-1.8-13.05-2.71-19.58,4.91-5.2,10.79-10.73,17.31-13.67,6.51-2.94,13.89-4.2,20.91-2.85s13.6,5.49,17.26,11.63c1.83-.57,3.76.43,5.12,1.77s1.91,3.46,1.37,5.29c-.54,1.84-2.15,3.31-4.03,3.7-1.17,5.47-2.41,11.05-3.58,16.53l-51.66-2.82Z"/>
    </g>
    <g>
      <path class="st3" d="M82.14,83.98c-1.29-.25-2.59-.49-3.88-.74-.07-1.76-.01-3.68-.08-5.44,4.4-2.04,7.93-6.71,8.39-11.54,2.38-1.61,4.53-3.65,5.9-6.18s1.88-5.59,1.02-8.34-3.3-4.77-6.14-5.21c.18-5.24-1.09-10.07-3.98-14.45-10.12.2-20.1.18-30.21.38-1.97,5.95-3.93,11.89-5.9,17.84-1.04-1.55-2.09-3.11-3.13-4.66-3.88.13-7.54,2.9-8.82,6.56-1.28,3.66-.34,7.94,2.14,10.93,2.48,2.99,6.34,4.69,10.22,4.8-.05,5.3-.12,10.72-.17,16.02-1.12.28-2.71.44-3.83.72,3.32,7.35,11.35,12.8,19.42,12.55s16.18-5.7,19.04-13.24Z"/>
      <g>
        <path class="st5" d="M65.04,60.45c-.73,3.32-3.7,3.44-7.17,2.68-3.47-.76-6.07-2.34-5.39-5.44.63-2.87,3.7-3.44,7.17-2.68,3.47.76,6.02,2.57,5.39,5.44Z"/>
        <path class="st5" d="M86.7,57.85c.78,3.31-1.85,4.71-5.31,5.52-3.46.81-6.48.52-7.21-2.58-.67-2.86,1.85-4.71,5.31-5.52,3.46-.81,6.54-.28,7.21,2.58Z"/>
      </g>
      <g>
        <path class="st1" d="M87.45,46.18c.43,6.95.17,13.94-.76,20.84"/>
        <path class="st1" d="M87.62,54.65l3.35-2.12"/>
      </g>
      <g>
        <path class="st1" d="M38.72,51.32c1.99,1.36,3.98,2.73,5.98,4.09"/>
        <path class="st1" d="M47.3,68.22c-.25-1.17-.5-2.35-.75-3.52"/>
      </g>
      <path class="st1" d="M60.11,79.32c6.24,2.61,13.78,1.86,19.39-1.92"/>
      <g>
        <circle class="st4" cx="59.64" cy="52.39" r="1.5"/>
        <circle class="st4" cx="79.88" cy="52.39" r="1.5"/>
        <path class="st1" d="M71.13,50.93c.49,4.01.97,8.01,1.46,12.02-1.05,0-2.1,0-3.15,0"/>
        <path class="st1" d="M55.37,43.74c1.12-1.36,2.95-2.11,4.7-1.91s3.37,1.32,4.17,2.89"/>
        <path class="st1" d="M75.98,43.24l5.81-.62"/>
        <path class="st1" d="M63.17,64.01c.11,1.1.86,2.11,1.88,2.53s2.27.23,3.12-.48"/>
      </g>
    </g>
  </g>
</svg>