<?xml version="1.0" encoding="UTF-8"?>
<svg id="OBJECTS" xmlns="http://www.w3.org/2000/svg" xmlns:xlink="http://www.w3.org/1999/xlink" version="1.1" viewBox="0 0 128.39 128.39">
  <!-- Generator: Adobe Illustrator 29.7.1, SVG Export Plug-In . SVG Version: 2.1.1 Build 8)  -->
  <defs>
    <style>
      .st0 {
        fill: none;
        stroke: #060305;
        stroke-linecap: round;
        stroke-linejoin: round;
      }

      .st1 {
        fill: #b52a41;
      }

      .st2 {
        fill: #a03cff;
      }

      .st3 {
        fill: #b478ff;
      }

      .st4 {
        fill: #ffc9c8;
      }

      .st5 {
        fill: #060305;
      }

      .st6 {
        fill: #c14f4f;
      }

      .st7 {
        clip-path: url(#clippath);
      }
    </style>
    <clipPath id="clippath">
      <circle class="st4" cx="64.2" cy="64.2" r="64.2"/>
    </clipPath>
  </defs>
  <circle class="st4" cx="64.2" cy="64.2" r="64.2"/>
  <g class="st7">
    <g>
      <path class="st3" d="M126.23,117.08c-16.55,12.52-40.04,19.49-60.8,19.13-20.5-.37-40.87-8.86-56.89-21.7-.2-.15-.39-.3-.58-.46,1.09-5.32,3.67-10.24,7.24-14.32,4.2-4.81,9.77-8.45,15.91-10.23,2.74-.79,5.48-1.59,8.22-2.39,3.23-.94,6.46-1.87,9.68-2.81,3.33,4.09,8.73,6.62,14,6.85s10.6-1.88,14.27-5.67c2.93.63,5.9,1.19,8.87,1.74,3.63.67,7.26,1.34,10.84,2.1,8.77,1.86,16.71,6.79,22.24,13.64,2.84,3.51,5.04,7.53,6.39,11.9.23.73.43,1.47.61,2.22Z"/>
      <path class="st2" d="M125.09,115.04c-38.55,7.11-78.61,7.03-117.08-.35-.2-.15-.39-.3-.58-.46,1.09-5.32,3.67-10.24,7.24-14.32,33.96,7.09,69.29,6.31,104.03,3.23,2.84,3.51,5.04,7.53,6.39,11.9Z"/>
      <path class="st2" d="M86.15,87.22c-6.14,7.85-12.29,15.82-18.41,23.61-9.47-7.9-18.94-15.81-28.41-23.72,3.23-.94,6.46-1.87,9.68-2.81,3.33,4.09,8.73,6.62,14,6.85s10.6-1.88,14.27-5.67c2.93.63,5.9,1.19,8.87,1.74Z"/>
      <g>
        <path class="st0" d="M98.15,90.32c-.94,9.02.1,18.25,3.02,26.84"/>
        <path class="st0" d="M28.32,90.41c1.7,9.81,2.02,19.95.97,29.89"/>
      </g>
    </g>
    <g>
      <path class="st5" d="M36.79,54.73c-1.76-.19-3.28-1.76-3.41-3.53-.13-1.77,1.15-3.54,2.87-3.98-.81-1.64-.6-3.9.88-4.96-1.45-.14-2.65-1.59-2.5-3.04s1.61-2.64,3.06-2.48c-2.06-2.15-2.69-5.66-1.17-8.22,1.52-2.56,4.84-3.9,7.71-3.12-.39-1.92.53-4.16,2.27-5.06,1.74-.9,4.06-.49,5.4.94.17-2.45,1.84-4.61,4.17-5.41,2.32-.79,5.09-.07,6.72,1.77-.03-3.25,3.14-5.84,6.39-5.86,3.25-.02,6.23,2.92,6.24,6.17.33-1.47,2.1-2.42,3.51-1.88,1.41.54,2.09,2.43,1.36,3.75,2.48-1.44,5.61-.97,7.76.92s2.91,5.21,1.8,7.85c.7-.51,1.95-.35,2.55.27s.81,1.55.74,2.41-.38,1.69-.7,2.49c1-.59,2.45-.21,3.03.8s.2,2.45-.81,3.03c3.28,1.61,4.51,6.44,3.48,9.94s-4.26,6.12-7.83,6.91l-53.53.3Z"/>
      <path class="st0" d="M48.02,18.61c1.66.36,3.16,1.39,4.09,2.81-.92-1.88-.89-4.2.08-6.06"/>
    </g>
    <g>
      <path class="st6" d="M78.29,86.15c.06-1.47-.03-2.99.03-4.46,3.16-1,5.96-3.1,7.8-5.85s3.1-6.33,2.82-9.63c4.05-2.34,6.62-7.04,6.4-11.72-.09-1.96-.68-3.97-2.05-5.37s-3.47-2.32-5.23-1.45c-.61-4.12-1.08-8.36-1.69-12.48-2.88-1.36-5.24-2.9-8.12-4.26-.23,2.32-2.08,4.38-4.36,4.84-2.28.47-4.8-.7-5.92-2.74-.22,1.57-1.74,2.86-3.33,2.81-1.59-.05-3.11-.86-3.23-2.44-.49,2.19-2.24,4.05-4.4,4.69s-4.88.05-6.48-1.53c-.41,5.12-.83,10.24-1.24,15.36-.94-1.41-1.66-2.74-2.6-4.14-4.19-.59-8.64,1.66-10.65,5.38-2.01,3.73-1.44,8.68,1.36,11.86,2.8,3.18,7.64,4.36,11.59,2.83-.18,6-.98,12.13-1.16,18.13,5.86,4.62,12.35,9.34,18.2,13.96,3.81-4.49,8.43-9.29,12.24-13.79Z"/>
      <g>
        <circle class="st1" cx="78.51" cy="66.56" r=".75"/>
        <circle class="st1" cx="84.28" cy="66.97" r=".75"/>
        <circle class="st1" cx="77.1" cy="63.21" r=".75"/>
        <circle class="st1" cx="82.22" cy="64.21" r=".75"/>
        <circle class="st1" cx="86.45" cy="61.97" r=".75"/>
      </g>
      <g>
        <circle class="st1" cx="51.45" cy="63.5" r=".75"/>
        <circle class="st1" cx="63.75" cy="63.8" r=".75"/>
        <circle class="st1" cx="54.81" cy="65.62" r=".75"/>
        <circle class="st1" cx="59.16" cy="67.21" r=".75"/>
        <circle class="st1" cx="58.51" cy="63.44" r=".75"/>
      </g>
      <g>
        <circle class="st0" cx="58.31" cy="53.97" r="7.47"/>
        <circle class="st0" cx="80.42" cy="53.97" r="7.47"/>
        <path class="st0" d="M65.55,51.9c.94-1.11,2.4-1.77,3.85-1.73s2.88.76,3.76,1.92"/>
      </g>
      <g>
        <circle class="st5" cx="58.16" cy="55.62" r="1.5"/>
        <circle class="st5" cx="78.75" cy="55.62" r="1.5"/>
        <path class="st0" d="M76.42,50.31l5.47.04"/>
        <path class="st0" d="M60.97,50.07c-1.03-.71-2.32-1.05-3.56-.92s-2.44.71-3.31,1.61"/>
        <path class="st0" d="M69.46,53.68c.39,3.65.77,7.3,1.16,10.95-.83.1-1.76.06-2.59.16"/>
        <path class="st0" d="M64.77,67.27c.18.85.83,1.57,1.65,1.84s1.78.07,2.42-.51"/>
      </g>
      <g>
        <path class="st0" d="M88.14,47.41c.28,6.41.55,12.82.83,19.23"/>
        <path class="st0" d="M88.7,55.79c1.23-.97,2.47-1.94,3.7-2.92"/>
      </g>
      <path class="st0" d="M40.14,52.12c2.3,1.67,4.6,3.34,6.89,5.02"/>
      <path class="st0" d="M40.6,64.38c-1.6-.33-3.36.74-3.81,2.31s.5,3.41,2.03,3.96c1.54.56,3.43-.25,4.1-1.74"/>
      <path class="st0" d="M66.04,82.44c4.05,1.3,8.56,1.17,12.53-.38"/>
      <path class="st0" d="M78.17,30.32c.4,1.71,0,3.59-1.05,4.99s-2.75,2.3-4.5,2.39"/>
    </g>
  </g>
</svg>