<?xml version="1.0" encoding="UTF-8"?>
<svg id="OBJECTS" xmlns="http://www.w3.org/2000/svg" xmlns:xlink="http://www.w3.org/1999/xlink" version="1.1" viewBox="0 0 128.39 128.39">
  <!-- Generator: Adobe Illustrator 29.7.1, SVG Export Plug-In . SVG Version: 2.1.1 Build 8)  -->
  <defs>
    <style>
      .st0 {
        fill: #fe5e04;
      }

      .st1 {
        stroke: #fe5e04;
      }

      .st1, .st2 {
        fill: none;
        stroke-linecap: round;
        stroke-linejoin: round;
      }

      .st2 {
        stroke: #060305;
      }

      .st3 {
        fill: #fdb044;
      }

      .st4 {
        fill: #ffc9c8;
      }

      .st5 {
        fill: #5abe46;
      }

      .st6 {
        fill: #060305;
      }

      .st7 {
        fill: #ff99a1;
      }

      .st8 {
        clip-path: url(#clippath);
      }
    </style>
    <clipPath id="clippath">
      <circle class="st3" cx="64.2" cy="64.2" r="64.2"/>
    </clipPath>
  </defs>
  <circle class="st3" cx="64.2" cy="64.2" r="64.2"/>
  <g class="st8">
    <g>
      <path class="st1" d="M46.79,15.03c2.86.99,5.22,3.33,6.25,6.17-.73-2.44-.3-5.21,1.12-7.32"/>
      <path class="st1" d="M90.26,44.54c1.56,1.19,3.65,1.67,5.57,1.28s3.66-1.63,4.65-3.34"/>
      <path class="st0" d="M39.48,58.39c-.59-4.83-1.19-9.66-1.78-14.49-1.56.29-3.42-.87-3.85-2.4s.46-3.31,1.93-3.88c-2.17-.32-4.4-2.64-4.03-4.8.37-2.16,2.72-3.76,4.87-3.33-1.19-2.85-1.04-6.51.72-9.05s4.86-4.09,7.95-3.98,6.07,1.88,7.64,4.54c-.25-3.08,2.29-6.35,5.35-6.81s6.28,1.75,6.96,4.76c-.03-2.02,1.63-3.92,3.63-4.17s4.07,1.21,4.52,3.17c1.13-2.63,3.55-4.61,6.4-4.82s5.77,1.28,7.27,3.72c1.5,2.44,1.52,5.71.04,8.17,1.49-1.27,3.87-1.5,5.36-.22,1.49,1.27,1.87,3.66.84,5.33,1.1-.85,2.95-.34,3.45.95s-.51,2.92-1.89,3.04c2.15.01,4.22,2.09,4.6,4.21.38,2.11-.66,4.35-2.37,5.65s-3.99,1.72-6.11,1.4c-.45,5.17-.85,10.13-1.3,15.3l-50.21-2.28Z"/>
    </g>
    <g>
      <path class="st5" d="M126.81,112.31c-6.31-13.18-19.03-22.5-33.37-25.33-5.62-1.11-11.21-1.85-16.83-2.96-3.78,3.29-8.79,5.11-13.8,5.01-5.01-.09-9.97-1.97-13.62-5.39-6.31,1.83-12.62,3.66-18.93,5.49-12.03,3.49-22.09,14.12-23.99,26.51,17.27,12.88,38.6,19.6,60.14,19.27,21.54-.33,43.54-9.19,60.4-22.6Z"/>
      <g>
        <path class="st2" d="M43.55,85.87c3.44,7.86,11.83,13.27,20.41,13.16s16.83-5.74,20.06-13.68"/>
        <path class="st2" d="M64.92,93.71c1.03,12.43,2.05,24.87,3.08,37.3"/>
        <path class="st2" d="M30.64,89.4c-.61,11.53-1.23,23.05-1.84,34.58"/>
        <path class="st2" d="M98.08,88.1c2.4,10.9,4.81,21.8,7.21,32.7"/>
      </g>
    </g>
    <g>
      <path class="st4" d="M78.69,84.43c-.18-1.53-.04-2.85-.23-4.38,5.01-2.68,8.57-7.78,9.14-13.44,2.42-1.45,4.57-3.45,5.83-5.98s1.55-5.6.42-8.18c-1.13-2.58-3.98-4.1-6.8-4.02-.3-3.23-.37-6.86-.67-10.1-1.69.39-3.69-.9-3.72-2.63-.82.92-2.28,1.21-3.38.67s-1.77-1.87-1.55-3.08c-1.46,1.63-3.95,2.24-6,1.48-2.05-.76-3.51-3.05-3.55-5.23-1.39,2.84-4.06,5.03-7.12,5.83s-6.72.57-9.32-1.24c-1.15,4.89-2.24,9.43-3.39,14.32-4.01-1.64-9.01-.11-11.57,3.39s-2.56,8.6-.15,12.2c2.4,3.6,6.98,5.55,11.27,4.99-.04,5.29-.1,10.3-.14,15.59,3.58,5.09,9.5,8.45,15.72,8.36,6.22-.09,11.76-3.36,15.2-8.55Z"/>
      <g>
        <path class="st7" d="M62.29,59.93c-.58,2.63-2.94,2.73-5.69,2.13s-4.81-1.85-4.27-4.32c.5-2.28,2.94-2.73,5.69-2.13s4.77,2.04,4.27,4.32Z"/>
        <path class="st7" d="M86.3,57.98c.62,2.62-1.47,3.73-4.21,4.38s-5.14.41-5.72-2.05c-.53-2.27,1.47-3.73,4.21-4.38s5.18-.22,5.72,2.05Z"/>
      </g>
      <g>
        <path class="st2" d="M87.38,48.31l.26,19.06"/>
        <path class="st2" d="M87.87,56.12c1.35-.8,2.69-1.6,4.04-2.41"/>
      </g>
      <g>
        <path class="st2" d="M40.18,52.18c2,1.81,3.99,3.62,5.99,5.42"/>
        <path class="st2" d="M48.06,69.14l-.12-2.47"/>
      </g>
      <path class="st2" d="M61.84,81.66c5.51,2.47,12.29,1.86,17.28-1.56"/>
      <g>
        <circle class="st6" cx="59.69" cy="53.88" r="1.5"/>
        <circle class="st6" cx="78.63" cy="53.88" r="1.5"/>
        <path class="st2" d="M55.63,46.61c.93-.99,2.25-1.6,3.6-1.68,1.36-.08,2.73.37,3.78,1.24"/>
        <path class="st2" d="M74.75,44.84c2.27-.09,4.55-.19,6.82-.28"/>
        <path class="st2" d="M69.37,53.73c-.02,2.25,1.02,4.49,2.75,5.92-1.1.43-2.27.84-3.37,1.27"/>
        <path class="st2" d="M63.16,63.73c.09,1.06.78,2.04,1.74,2.49s2.16.35,3.03-.26"/>
      </g>
      <path class="st1" d="M68.01,28.78c-.76,4.28-4.2,7.96-8.42,9.02"/>
    </g>
  </g>
</svg>