<?xml version="1.0" encoding="UTF-8"?>
<svg id="OBJECTS" xmlns="http://www.w3.org/2000/svg" xmlns:xlink="http://www.w3.org/1999/xlink" version="1.1" viewBox="0 0 128.39 128.39">
  <!-- Generator: Adobe Illustrator 29.7.1, SVG Export Plug-In . SVG Version: 2.1.1 Build 8)  -->
  <defs>
    <style>
      .st0 {
        stroke: #060305;
      }

      .st0, .st1 {
        fill: none;
        stroke-linecap: round;
        stroke-linejoin: round;
      }

      .st1 {
        stroke: #772227;
      }

      .st2 {
        fill: #b478ff;
      }

      .st3 {
        fill: #fff;
      }

      .st4 {
        fill: #772227;
      }

      .st5 {
        fill: #ffc9c8;
      }

      .st6 {
        fill: #060305;
      }

      .st7 {
        fill: #c14f4f;
      }

      .st8 {
        clip-path: url(#clippath);
      }
    </style>
    <clipPath id="clippath">
      <circle class="st5" cx="64.2" cy="64.2" r="64.2"/>
    </clipPath>
  </defs>
  <circle class="st5" cx="64.2" cy="64.2" r="64.2"/>
  <g class="st8">
    <g>
      <path class="st2" d="M126.53,112.89c-5.65-12.6-17.82-22.17-31.48-24.21,2.44-4.14,1.26-9.72-1.86-13.38-3.12-3.65-8.03-5.49-12.65-6.81-14.14-4.04-29.53-3.59-43.41,1.27-3.14,1.1-6.25,2.45-8.85,4.53s-4.66,4.99-5.18,8.28c-.52,3.29.72,6.94,3.49,8.8-10.45,3.67-18.67,13.3-20.25,24.26,17.92,11.73,39.45,17.28,60.87,17.03,21.42-.26,41.69-7.6,59.32-19.77Z"/>
      <path class="st0" d="M26.38,91.72c5.24-2.6,11.73-2.5,16.88.26,7.03,3.77,14.04,7.95,20.99,11.95,1.57.9,3.54.69,4.89-.52,5.06-4.53,10.15-9.01,15.2-13.55,2.98-2.68,7.73-1.97,11.6-.95"/>
      <g>
        <path class="st0" d="M65.62,102.55v12.94"/>
        <path class="st0" d="M68.43,101.98c.63,5.14,1.27,10.27,1.9,15.41"/>
      </g>
      <g>
        <path class="st0" d="M29.28,90.79c2.21,10.22,2.3,20.9.27,31.16"/>
        <path class="st0" d="M93.78,88.67c-.37,11.41,1.73,22.9,6.13,33.44"/>
      </g>
      <g>
        <path class="st0" d="M47.57,85.34c-3.66-3.18-8.07-5.49-12.77-6.68"/>
        <path class="st0" d="M78.36,85.2l6.19-4.39"/>
      </g>
    </g>
    <g>
      <g>
        <path class="st7" d="M87.59,47.82c2.84.17,5.36,2.32,6.36,4.99,1,2.67.59,5.74-.7,8.28-1.29,2.54-3.4,4.59-5.76,6.2l.1-19.47Z"/>
        <path class="st0" d="M88.32,55.96c1.26-1.01,2.52-2.03,3.78-3.04"/>
      </g>
      <path class="st7" d="M78.36,85.32c.07-4.71.19-8.81.26-13.52-10.18-.17-20.22-.25-30.4-.43-.28,4.71-.57,9.41-.85,14.12,6.42,5.15,12.83,10.56,19.25,15.71,3.78-5.24,7.95-10.64,11.74-15.88Z"/>
      <g>
        <path class="st4" d="M92.04,34.28c-.56-2.23-3.09-3.75-5.32-3.18,1.65-1.55,1.49-4.6-.32-5.96-1.81-1.36-5.57-1.15-6.6.86-3.01-3.84-7.8-6-12.63-6.67-6.36-.88-13,.74-18.35,4.28-1.12-2.92-3.67-5.32-6.71-6.11-4.1-1.05-8.74.81-11.08,4.33-2.34,3.52-2.29,8.44,0,11.99,1.6,2.47,4.19,4.2,7.04,4.91-1.11,4.17-1.24,8.6-.25,12.8,1.25,5.35,3.7,11.57,5.63,16.72,1.15,3.05,2.32,6.16,4.33,8.73,2.01,2.57,5.45,4.4,8.71,4.38,2.25,2.75,5.62,4.54,9.16,4.88,3.54.33,7.09-1.21,9.81-3.5,4.05-.23,7.97-2.25,10.5-5.42,2.53-3.17,2.58-7.17,2.57-11.23-.04-8.76.37-17.72.33-26.49,2.23-.56,3.75-3.09,3.19-5.32Z"/>
        <g>
          <path class="st1" d="M32.37,18.03c2.93-1.78,6.68-2.14,9.9-.94,3.21,1.2,5.81,3.93,6.86,7.19"/>
          <path class="st1" d="M79.12,26.7c.47-1.41,1.49-2.63,2.8-3.34s2.88-.92,4.32-.57"/>
        </g>
      </g>
      <path class="st7" d="M86.01,51.05c-.68,5-.83,9.71-1.51,14.71-10.4-3.68-21.87-3.52-32.34-.04-1.25-4.41-2.51-8.81-3.76-13.22,2.41-4.12,3.18-9.47,2.2-14.14,2.57.66,5.38-.15,7.53-1.71,2.15-1.56,3.55-4.11,3.71-6.77,2.3-.44,4.77-.57,7.11-.47,2.34.1,4.73.8,6.46,2.39,1.34,1.22,2.21,2.91,3.62,4.05,1.41,1.14,3.78,1.51,4.86.05l2.12,15.14Z"/>
      <path class="st1" d="M61.5,29.73c3.88-1,8.18-.19,11.43,2.14,2.39,1.72,4.16,4.15,5.89,6.54"/>
      <g>
        <path class="st7" d="M45.34,48.82c-4.13-1.16-8.89.94-10.97,4.7-2.07,3.76-1.39,8.79,1.47,11.98,2.86,3.2,7.66,4.44,11.77,3.21l-2.28-19.89Z"/>
        <path class="st0" d="M37.76,52.75l6.12,2.82"/>
      </g>
      <g>
        <circle class="st6" cx="59.39" cy="54.43" r="1.5"/>
        <circle class="st6" cx="78.56" cy="54.43" r="1.5"/>
        <path class="st3" d="M70.91,66.68c-3.01.12-6.04-.22-8.95-1.02.79,1.79,2.19,3.13,4.14,3.31s3.71-.68,4.81-2.29Z"/>
        <path class="st0" d="M54.34,48.74c.79-1.65,2.47-2.85,4.29-3.05,1.82-.2,3.72.6,4.85,2.04"/>
        <path class="st0" d="M74.49,47.22c.87-1.5,2.58-2.48,4.31-2.48s3.44.98,4.31,2.48"/>
        <path class="st0" d="M69.9,53.16l2.01,8.38c-1.14-.03-2.45-.03-3.59-.06"/>
      </g>
    </g>
  </g>
</svg>