<?xml version="1.0" encoding="UTF-8"?>
<svg id="OBJECTS" xmlns="http://www.w3.org/2000/svg" xmlns:xlink="http://www.w3.org/1999/xlink" version="1.1" viewBox="0 0 128.39 128.39">
  <!-- Generator: Adobe Illustrator 29.7.1, SVG Export Plug-In . SVG Version: 2.1.1 Build 8)  -->
  <defs>
    <style>
      .st0 {
        fill: #ff7171;
      }

      .st1 {
        fill: #ff9a7d;
      }

      .st2 {
        stroke: #060305;
      }

      .st2, .st3, .st4 {
        fill: none;
        stroke-linecap: round;
        stroke-linejoin: round;
      }

      .st3 {
        stroke: #c14f4f;
      }

      .st5 {
        fill: #b4d2fe;
      }

      .st4 {
        stroke: #fff;
      }

      .st6 {
        fill: #060305;
      }

      .st7 {
        fill: #c14f4f;
      }

      .st8 {
        clip-path: url(#clippath);
      }
    </style>
    <clipPath id="clippath">
      <circle class="st5" cx="64.2" cy="64.2" r="64.2"/>
    </clipPath>
  </defs>
  <circle class="st5" cx="64.2" cy="64.2" r="64.2"/>
  <g class="st8">
    <g>
      <path class="st3" d="M66.15,16.43c-8.01-.76-16.12,2.52-22.11,7.99-5.99,5.47-9.98,12.95-12.23,20.81-2.24,7.86-2.83,16.12-2.76,24.31"/>
      <path class="st7" d="M34.24,90.95c-2.04-8.82-3.07-17.86-3.08-26.91,0-7.76.75-15.59,3.21-22.95,2.46-7.36,6.71-14.25,12.81-19.04,6.11-4.79,14.16-7.3,21.8-5.93,5.81,1.04,11.82,2.66,15.74,7.09,3.91,4.42,6.02,10.2,7.07,16.01,1.05,5.81,1.12,11.75,1.47,17.65.74,12.65,2.76,25.23,6.01,37.48l-65.02-3.39Z"/>
    </g>
    <g>
      <path class="st6" d="M127.84,109.09c-4.8-13.73-17.7-24.22-32.07-26.76-6.01-1.06-11.94-1.35-17.95-2.41-3.82,2.93-8.65,4.53-13.46,4.45s-9.72-1.91-13.43-4.97c-6.21,1.6-12.41,3.19-18.62,4.79-12.05,3.1-22.07,13.24-23.91,25.5,17.92,10.57,36.98,21.94,57.8,21.82,20.83-.12,43.84-11.63,61.64-22.41Z"/>
      <g>
        <path class="st4" d="M40.68,83.25c4.97,8.5,14.78,13.93,24.62,13.64s19.3-6.3,23.76-15.08"/>
        <path class="st2" d="M29.04,85.13c2.62,10.2,3.69,20.79,3.17,31.3"/>
        <path class="st2" d="M101.67,84.44c-1.52,10.45-1.24,21.17.83,31.53"/>
      </g>
    </g>
    <g>
      <path class="st1" d="M79.86,81.14c-.12-1.47-.04-2.98-.16-4.45,4.6-2.66,8.07-7.48,8.69-12.76,2.76-1.39,5.18-3.55,6.55-6.32,1.36-2.77,1.57-6.17.22-8.94-1.35-2.78-4.04-4.54-7.13-4.37-2.2-9.88-9.91-17.74-19.47-21.06-5.85,8.09-11.69,16.17-17.54,24.26-.85-.96-1.87-2.46-2.72-3.42-4.16-.54-8.54,1.6-10.67,5.21s-1.9,8.48.57,11.86c2.47,3.38,7.04,5.09,11.12,4.16,0,5.24.27,10.61.26,15.84-1.65.52-3.37.81-5.02,1.33,4.15,6.71,11.67,10.76,19.56,10.66,7.89-.09,15.58-4.57,19.57-11.38l-3.85-.62Z"/>
      <g>
        <path class="st0" d="M64.32,58.28c-.58,2.63-2.94,2.73-5.69,2.13-2.75-.6-4.81-1.85-4.27-4.32.5-2.28,2.94-2.73,5.69-2.13,2.75.6,4.77,2.04,4.27,4.32Z"/>
        <path class="st0" d="M88.1,55.62c.62,2.62-1.47,3.73-4.21,4.38-2.74.64-5.14.41-5.72-2.05-.53-2.27,1.47-3.73,4.21-4.38,2.74-.64,5.18-.22,5.72,2.05Z"/>
      </g>
      <g>
        <path class="st2" d="M87.99,44.09c1,6.77,1.2,13.65.6,20.46"/>
        <path class="st2" d="M89.1,52.16c1.38-1.08,2.77-2.17,4.15-3.25"/>
      </g>
      <path class="st2" d="M41.38,48.77c2.05,1.68,4.11,3.35,6.16,5.03"/>
      <path class="st2" d="M65.56,78.92c4.88,1.73,10.61.86,14.75-2.24"/>
      <path class="st3" d="M68.56,22.64c-1.4,4.7-3.45,9.21-6.09,13.35"/>
      <g>
        <circle class="st6" cx="81.16" cy="51.14" r="1.5"/>
        <path class="st2" d="M71.98,50.53c.66,3.46,1.32,6.92,1.97,10.38-1.06.16-2.12.32-3.19.48"/>
        <path class="st2" d="M64.89,62.67c.02,1.06.72,2.08,1.7,2.49s2.2.19,2.97-.55"/>
        <path class="st2" d="M58.47,51.19c1.52-1.39,4.36-.78,5.17,1.11"/>
        <path class="st2" d="M54.19,44.8c3.93.56,7.86,1.13,11.79,1.69"/>
        <path class="st2" d="M74.77,45.27c.12-2.73,2-5.29,4.57-6.23,2.56-.94,5.66-.19,7.51,1.81"/>
      </g>
    </g>
  </g>
</svg>