<?xml version="1.0" encoding="UTF-8"?>
<svg id="OBJECTS" xmlns="http://www.w3.org/2000/svg" xmlns:xlink="http://www.w3.org/1999/xlink" version="1.1" viewBox="0 0 128.39 128.39">
  <!-- Generator: Adobe Illustrator 29.7.1, SVG Export Plug-In . SVG Version: 2.1.1 Build 8)  -->
  <defs>
    <style>
      .st0 {
        fill: #fe5e04;
      }

      .st1 {
        fill: #ff9a7d;
      }

      .st2 {
        stroke: #060305;
      }

      .st2, .st3 {
        fill: none;
        stroke-linecap: round;
        stroke-linejoin: round;
      }

      .st3 {
        stroke: #c14f4f;
      }

      .st4 {
        fill: #fff;
      }

      .st5 {
        fill: #b4d2fe;
      }

      .st6 {
        fill: #060305;
      }

      .st7 {
        fill: #c14f4f;
      }

      .st8 {
        clip-path: url(#clippath);
      }
    </style>
    <clipPath id="clippath">
      <circle class="st5" cx="64.2" cy="64.2" r="64.2"/>
    </clipPath>
  </defs>
  <circle class="st5" cx="64.2" cy="64.2" r="64.2"/>
  <g class="st8">
    <g>
      <path class="st3" d="M44.2,26.52l2.45.86c-.29-.94-.57-1.88-.86-2.82"/>
      <path class="st7" d="M39.42,47.69c-1.25-9.64,3.95-19.78,12.62-24.61s20.28-4.06,28.19,1.86c2.29,1.71,4.28,3.82,5.66,6.29,3.66,6.58,2.49,14.6,1.21,21.98l-47.68-5.52Z"/>
    </g>
    <g>
      <path class="st4" d="M81.73,92l1.66-2.15-5.47-9-4.92,4.46c-7.72-2.32-13.55-2.18-20.11-.62l-7.27-4.73-6.35,7.41,2.72,2.54c2.35,12.81,4.71,25.61,7.06,38.42,11.94,3.51,24.75,3.75,36.14-1.27-1.04-11.76-2.36-23.34-3.46-35.07Z"/>
      <g>
        <path class="st6" d="M65,92.57l-6.5,9.64,1.87,2.22c2.35,2.8,6.72,2.61,8.82-.39l2.02-2.89-6.21-8.58Z"/>
        <polygon class="st6" points="63.12 100.97 58.68 131.33 72.44 130.27 66.45 100.62 63.12 100.97"/>
      </g>
      <g>
        <path class="st2" d="M44.57,92.59c4.6,4.23,8.15,7.41,12.74,11.63.35-.71,1.19-2.02,1.19-2.02"/>
        <path class="st2" d="M71.21,101.15c.44.77,1.54,2.33,1.54,2.33,0,0,5.22-6.25,8.35-10.29"/>
      </g>
    </g>
    <g>
      <path class="st0" d="M128.8,113.84c-5.23-14.76-19.39-25.69-34.93-27.52.03-1.03.07-2.07.1-3.1-4.87-.52-8.8-.62-13.67-1.14.3,15.3.61,30.59.91,45.89,16.5,1.08,34.18-4.47,47.59-14.13Z"/>
      <path class="st2" d="M93.97,86.06c0,6.91,0,13.82-.01,20.74,1.47-.37,2.61-.56,4.09-.94-.63,6.65-1.23,13.52-1.86,20.17"/>
    </g>
    <g>
      <path class="st0" d="M53.45,129.06c-3.75-15.83-7.5-31.66-11.25-47.5-4.57,1.38-9.33,2.05-13.91,3.43.3.84.39,1.52.69,2.36-12.48,4.47-22.67,15.47-24.98,28.52,14.97,7.83,32.57,12.26,49.44,13.19Z"/>
      <path class="st2" d="M28.9,87.04c1.59,6.32,3.17,12.63,4.76,18.95-1.67-.31-3.31-.56-4.98-.88,2.01,6.03,3.65,12.24,5.66,18.26"/>
    </g>
    <g>
      <path class="st1" d="M92.44,48.32c-1.22-1.21-2.99-1.84-4.69-1.74-.68-5.12-1.9-10.17-3.65-15.03-10.53.31-21.08.46-31.61.77-1.31,5.44-2.62,10.89-3.93,16.33-1.45-1.08-3.11-2.34-4.56-3.42-3.72.56-7.05,3.07-8.51,6.4-1.45,3.33-.98,7.36,1.22,10.3,2.19,2.93,6.03,4.67,9.79,4.42.07,5.41-.09,11.03-.02,16.44,6.24,3.17,12.3,6.6,18.54,9.78,4.31-3.47,8.5-6,12.55-9.77-.11-1.53-.12-2.87-.23-4.4,5.56-2.31,9.65-7.64,10.45-13.61.02-.13.03-.27.05-.4,1-.7,1.96-1.45,2.83-2.3,1.85-1.8,3.32-4.07,3.8-6.61.47-2.54-.17-5.35-2.01-7.16Z"/>
      <g>
        <path class="st7" d="M62.46,56.7c-.58,2.63-2.94,2.73-5.69,2.13s-4.81-1.85-4.27-4.32c.5-2.28,2.94-2.73,5.69-2.13,2.75.6,4.77,2.04,4.27,4.32Z"/>
        <path class="st7" d="M86.47,54.75c.62,2.62-1.47,3.73-4.21,4.38-2.74.64-5.14.41-5.72-2.05-.53-2.27,1.47-3.73,4.21-4.38s5.18-.22,5.72,2.05Z"/>
      </g>
      <g>
        <path class="st2" d="M87.97,46.62l.21,18.53"/>
        <path class="st2" d="M88.14,53.67l3-2.65"/>
      </g>
      <g>
        <path class="st2" d="M39.86,50.43c1.85,1.62,3.71,3.24,5.56,4.87"/>
        <path class="st2" d="M46.14,66.74c-.12-.94-.24-1.88-.36-2.82"/>
      </g>
      <path class="st2" d="M61.47,79.18c5.23,2.09,11.4,1.67,16.29-1.11"/>
      <g>
        <path class="st4" d="M68.8,64.5c-2.35-.61-4.69-1.22-7.04-1.83-.31,1.33-.18,2.89.81,3.82s2.5,1.28,3.8.88,2.13-1.53,2.43-2.86Z"/>
        <path class="st2" d="M53.58,42.93c1.36-1.42,3.35-2.22,5.32-2.14,1.97.08,3.89,1.04,5.13,2.57"/>
        <path class="st2" d="M75.61,43.26c1-1.4,2.68-2.3,4.41-2.34,1.72-.05,3.45.75,4.53,2.1"/>
        <path class="st2" d="M69.66,51.73c.48,2.95.95,5.91,1.43,8.86-1.37.09-2.74.17-4.11.26"/>
        <path class="st2" d="M56.8,50.62c.72-.63,1.78-.85,2.69-.56s1.66,1.07,1.89,2"/>
        <path class="st2" d="M77.4,52.15c0-.9.57-1.77,1.39-2.13s1.85-.17,2.5.46"/>
      </g>
    </g>
  </g>
</svg>