<?xml version="1.0" encoding="UTF-8"?>
<svg id="OBJECTS" xmlns="http://www.w3.org/2000/svg" xmlns:xlink="http://www.w3.org/1999/xlink" version="1.1" viewBox="0 0 128.39 128.39">
  <!-- Generator: Adobe Illustrator 29.7.1, SVG Export Plug-In . SVG Version: 2.1.1 Build 8)  -->
  <defs>
    <style>
      .st0 {
        fill: #ff9a7d;
      }

      .st1 {
        fill: none;
        stroke: #060305;
        stroke-linecap: round;
        stroke-linejoin: round;
      }

      .st2 {
        fill: #fff;
      }

      .st3 {
        fill: #b4d2fe;
      }

      .st4 {
        fill: #060305;
      }

      .st5 {
        fill: #c14f4f;
      }

      .st6 {
        clip-path: url(#clippath);
      }
    </style>
    <clipPath id="clippath">
      <circle class="st3" cx="64.2" cy="64.2" r="64.2"/>
    </clipPath>
  </defs>
  <circle class="st3" cx="64.2" cy="64.2" r="64.2"/>
  <g class="st6">
    <path class="st0" d="M79.3,89.29c-.09-5.61-.21-11.03-.31-16.63-10.2-1.04-20.21-2.09-30.41-3.12-.52,5.65-1.04,11.29-1.56,16.94,4.21,3.85,9.88,6.36,15.57,6.68,5.69.31,12.1-.49,16.7-3.86Z"/>
    <g>
      <path class="st2" d="M108.45,91.58c-7.3-3.49-15.36-5.82-23.45-6.22l.31-.41-3.63-6.82-16.65,10.9-18.56-12.9-4.5,7.82.65.74c-4.39,1.12-8.72,2.37-12.96,4-4.95,1.91-9.7,4.49-13.59,8.1-5.11,4.75-8.56,11.24-9.65,18.13,17.95,12.87,39.97,20.93,62.04,20.03,22.07-.9,40.9-10.1,57.75-24.39-2.61-8.53-9.7-15.14-17.75-18.99Z"/>
      <g>
        <path class="st1" d="M42.43,85.03c5.14,5.57,10.28,11.14,15.42,16.71,2.53-4.18,4.93-8.2,7.46-12.38,2.4,4.36,4.94,8.57,7.33,12.94,4.26-5.79,8.41-11.48,12.67-17.27"/>
        <path class="st1" d="M65.13,89.94c.45,11.94.9,23.87,1.35,35.81"/>
        <path class="st1" d="M83.26,124.71c-.3-4.59-.6-9.18-.89-13.76,5.94-.08,11.68-.08,17.62-.16.13,3.65-.26,7.09-.13,10.73"/>
        <path class="st1" d="M104.57,90.12c.76,8.6,2.36,17.12,4.76,25.41"/>
        <path class="st1" d="M23.84,91.73c-.74,8.88-1.49,17.76-2.23,26.64"/>
      </g>
    </g>
    <g>
      <g>
        <path class="st0" d="M88.31,46.63c2.87-.32,5.73,1.63,6.87,4.28,1.14,2.66.71,5.82-.71,8.34-1.42,2.52-3.74,4.43-6.29,5.81l.13-18.43Z"/>
        <path class="st1" d="M88.51,54.82l3.71-3.18"/>
      </g>
      <path class="st5" d="M88.1,68.11c1.06-8.74.73-20,.35-26.1.61-2.1.79-4.44.27-6.56-.74-3.03-2.2-5.88-4.23-8.25-1.43-1.68-3.14-3.11-5-4.31-5.8-3.76-13.09-5.15-19.87-3.79-6.78,1.36-12.97,5.45-16.88,11.15-3.91,5.7-5.49,12.95-4.31,19.76.97,5.63,2.68,10.64,5,15.86s5.55,10.14,10.01,13.71,10.26,5.68,15.93,4.99c4.42-.54,8.9-1.94,12.3-4.83s5.89-7.22,6.43-11.64Z"/>
      <path class="st0" d="M87.04,44.35c0,1.14.06,2.59.12,4.09.24,5.47-.88,10.92-3.32,15.82l-.04.08c-7.81-1.71-15.62-1.67-23.37.26-.46-.27-.91-.53-1.36-.8-3.89-2.32-6.55-6.25-7.32-10.71l-1.54-8.87c-.58-3.35.6-6.87,2.45-9.72,1.86-2.85,4.96-4.96,8.35-5.22,3.39-.25,6.96,1.56,8.39,4.65.29-2.51,3.06-4.72,5.55-5.16s5.1.55,6.97,2.25c1.87,1.7,5.06,7.1,5.11,13.33Z"/>
      <g>
        <circle class="st5" cx="77.02" cy="56.59" r=".75"/>
        <circle class="st5" cx="82.75" cy="56.94" r=".75"/>
        <circle class="st5" cx="79.52" cy="59.78" r=".75"/>
      </g>
      <g>
        <circle class="st5" cx="57.79" cy="58.28" r=".75"/>
        <circle class="st5" cx="62.76" cy="56.86" r=".75"/>
        <circle class="st5" cx="65.5" cy="59.03" r=".75"/>
        <circle class="st5" cx="61.26" cy="61.17" r=".75"/>
      </g>
      <g>
        <path class="st0" d="M47.84,50.77c-1.25-1.27-2.5-2.53-3.75-3.8-4.24.23-8.36,3-9.67,6.83-1.31,3.83.1,8.35,3.39,10.89,3.29,2.54,8.26,2.94,11.96.96l-1.93-14.88Z"/>
        <path class="st1" d="M38.76,52.69c2,1.18,4,2.35,6,3.53"/>
      </g>
      <g>
        <path class="st1" d="M66.28,37.83c1.94.11,3.88.22,5.82.33"/>
        <path class="st1" d="M65.57,40.91l7.24.18"/>
      </g>
      <g>
        <circle class="st4" cx="60.06" cy="52.68" r="1.5"/>
        <circle class="st4" cx="79.81" cy="52.68" r="1.5"/>
        <path class="st1" d="M70.83,51.9c1.95,2.78,2.92,6.23,2.72,9.62-1.18.18-2.4.28-3.58.46"/>
        <path class="st1" d="M55.48,47.92c.92-1.57,2.74-2.56,4.55-2.49s3.55,1.21,4.34,2.85"/>
        <path class="st1" d="M76.49,48.13c.61-1.41,2.05-2.42,3.58-2.52,1.53-.1,3.09.71,3.88,2.02"/>
        <path class="st1" d="M65.63,65.58c.27,1.14,1.17,2.12,2.29,2.47s2.42.08,3.3-.69"/>
      </g>
    </g>
  </g>
</svg>