<?xml version="1.0" encoding="UTF-8"?>
<svg id="OBJECTS" xmlns="http://www.w3.org/2000/svg" xmlns:xlink="http://www.w3.org/1999/xlink" version="1.1" viewBox="0 0 128.39 128.39">
  <!-- Generator: Adobe Illustrator 29.7.1, SVG Export Plug-In . SVG Version: 2.1.1 Build 8)  -->
  <defs>
    <style>
      .st0 {
        stroke: #060305;
      }

      .st0, .st1 {
        fill: none;
        stroke-linecap: round;
        stroke-linejoin: round;
      }

      .st2 {
        fill: #b478ff;
      }

      .st3 {
        fill: #fff;
      }

      .st4 {
        fill: #772227;
      }

      .st5 {
        fill: #ffc9c8;
      }

      .st1 {
        stroke: #fff;
      }

      .st6 {
        fill: #dc6e5a;
      }

      .st7 {
        fill: #060305;
      }

      .st8 {
        fill: #c14f4f;
      }

      .st9 {
        clip-path: url(#clippath);
      }
    </style>
    <clipPath id="clippath">
      <circle class="st5" cx="64.2" cy="64.2" r="64.2"/>
    </clipPath>
  </defs>
  <circle class="st5" cx="64.2" cy="64.2" r="64.2"/>
  <g class="st9">
    <g>
      <path class="st2" d="M124.87,107.78c-4.01-6.94-8.57-13.83-15.12-18.45-9.18-6.47-20.82-7.73-32.01-8.67-3.07,4.49-8.94,6.45-14.36,5.99-5.42-.46-10.88-3.6-15.44-6.56-17.58-.18-34.72,11.29-41.26,27.62,15.78,13.56,40.1,28.63,60.86,27.31,20.76-1.33,38.53-18.31,57.32-27.24Z"/>
      <g>
        <path class="st0" d="M43.29,80.25c3.03,7.56,10.8,12.96,18.94,13.16,8.14.2,16.17-4.8,19.57-12.2"/>
        <path class="st0" d="M59.01,93.16c1.47,1.81,2.93,3.62,4.4,5.43,1.31-1.86,2.62-3.72,3.93-5.58"/>
      </g>
    </g>
    <g>
      <path class="st4" d="M48.29,26.42s-12.86,7.4-6.59,23.66c6.27,16.26,26.22-10.77,6.59-23.66Z"/>
      <g>
        <path class="st8" d="M94.2,52.59c-.42,2.45-1.77,4.68-3.51,6.46-.63.64-1.32,1.21-2.03,1.75-.35,5.64-1.93,10.36-5.93,13.66-1.33,1.09-2.92,2.03-4.82,2.8.1,1.71-.17,3.39-.08,5.09-3.63,5.02-9.17,8.16-15.35,7.79-3.64-.22-7.23-1.55-10.18-3.72-2.06-1.5-3.81-3.42-5.05-5.65.1-2.55.24-5.05.38-7.55.15-2.79.31-5.57.42-8.43-4.09.26-8.34-1.37-10.96-4.52-2.61-3.16-3.39-7.84-1.63-11.54,1.76-3.7,6.12-6.08,10.14-5.25.65,1.12,1.22,2.28,1.87,3.4,2.25-2.89,3.89-6.46,3.97-10.12.09-3.66-1.03-7.34-3.15-10.34,4.26-4.43,10.38-6.82,16.49-6.82h.01c2.9,0,5.8.54,8.5,1.65,4.58,1.89,8.02,5.42,10.38,9.7,1.97,3.55,3.19,7.62,3.72,11.7.03.31.07.61.11.92,1.78-.04,3.61.73,4.83,2.05,1.69,1.83,2.29,4.51,1.87,6.97Z"/>
        <g>
          <path class="st6" d="M83.67,30.95c-.29.49-.66.95-1.1,1.34-2.18,1.99-5.99,2.04-7.96-.16-.8-.9-1.38-2.15-2.53-2.49-1.61-.46-3,1.13-4.53,1.82-2.27,1.03-5.19-.21-6.34-2.42-1.16-2.21-.67-5.06.86-7.03.75-.96,1.67-1.76,2.71-2.41h.01c2.9,0,5.8.54,8.5,1.65,4.58,1.89,8.02,5.42,10.38,9.7Z"/>
          <path class="st6" d="M88.66,58.49v2.31c-.35,5.64-1.93,10.36-5.93,13.66-5.56-1.19-4.23-7.22-1.47-7.22,3.36,0,4.05-3.41,1.26-4.18-2.8-.76-1-8.32,6.14-4.57Z"/>
          <path class="st6" d="M52.43,82.31c.39.42.55,1,.58,1.57.05.91-.22,1.78-.71,2.54-2.06-1.5-3.81-3.42-5.05-5.65.1-2.55.24-5.05.38-7.55.93-.19,1.92-.11,2.79.27,1.61.69,2.76,2.34,2.85,4.08.1,1.75-.86,3.51-2.39,4.37.51-.24,1.16-.04,1.55.37Z"/>
        </g>
      </g>
      <g>
        <path class="st0" d="M88.13,55.12l.48,5.41"/>
        <path class="st0" d="M88.38,52.37c1.15-1.32,2.3-2.65,3.44-3.97"/>
      </g>
      <g>
        <path class="st0" d="M38.78,48.76c2.38,1.62,4.77,3.24,7.15,4.86"/>
        <path class="st0" d="M47.13,62.77l.59,2.82"/>
      </g>
      <path class="st0" d="M63.52,78.15c4.86,1.16,10.07.78,14.71-1.07"/>
      <g>
        <path class="st0" d="M65.72,55.37c-4.35-.02-8.83-.35-13.18-.37-.66-2.38-.86-4.91-1.52-7.3,5.57,0,11.14,0,16.71,0-.52,2.48-1.48,5.19-2,7.67Z"/>
        <path class="st0" d="M87.96,54.84c-3.96.05-7.96.26-11.92.31-.56-2.52-1.06-5-1.61-7.52,4.9-.05,9.8-.1,14.71-.15-.28,2.23-.89,5.12-1.18,7.35Z"/>
        <path class="st0" d="M67.64,47.48c.43-1.54,1.98-2.7,3.59-2.67,1.6.03,3.11,1.23,3.49,2.79"/>
      </g>
      <g>
        <circle class="st7" cx="59.68" cy="51.18" r="1.5"/>
        <circle class="st7" cx="80.28" cy="51.18" r="1.5"/>
        <path class="st3" d="M69.37,61.61c-2.1.72-4.53.36-6.34-.92-.24,1.21-.04,2.51.93,3.29s2.37.96,3.5.46c1.13-.5,1.83-1.59,1.91-2.83Z"/>
        <path class="st0" d="M68.9,58.87c1.22-.08,2.43-.16,3.65-.23-.36-3.41-.8-7.06-1.16-10.47"/>
        <path class="st0" d="M55.87,44.69c1.2-1.05,2.83-1.59,4.42-1.47,1.59.12,3.12.91,4.14,2.12"/>
        <path class="st0" d="M76.21,45.6c1.04-1.24,2.6-2.04,4.22-2.15s3.27.46,4.47,1.55"/>
      </g>
    </g>
    <g>
      <g>
        <path class="st7" d="M46.44,126.54c-2.04-15.44-6.12-46.32-6.12-46.32l-10.92,2.81s4.92,30.67,7.47,46.13l9.57-2.62Z"/>
        <path class="st1" d="M43.13,102.6c-3.49.5-6.97,1-10.46,1.5.99,2.22,3.46,3.68,5.87,3.41s4.12-2.53,4.59-4.91Z"/>
      </g>
      <g>
        <path class="st7" d="M86.17,124.15c.51-14.51,1.03-29.01,1.54-43.52,3.69.84,6.89,1.11,10.59,1.95-.36,13.41-.67,27.01-1.03,40.42l-11.1,1.15Z"/>
        <path class="st1" d="M97.72,102.9c-3.65-.11-7.29-.22-10.94-.33.64,2.38,2.83,4.49,5.29,4.62,2.46.13,4.77-1.99,5.66-4.29Z"/>
      </g>
    </g>
  </g>
</svg>